<svg width="512" height="512" viewBox="0 0 512 512" fill="none" xmlns="http://www.w3.org/2000/svg">
<g clip-path="url(#clip0_128_2)">
<path d="M496.52 129.85C483.09 80.37 431.63 28.92 382.15 15.48C351.81 7.92 311.17 0.13 256 0C200.83 0.14 160.19 7.92 129.85 15.49C80.38 28.92 28.92 80.37 15.48 129.85C7.92 160.19 0.13 200.83 0 256C0.14 311.17 7.92 351.81 15.49 382.15C28.93 431.63 80.38 483.08 129.86 496.52C160.2 504.09 200.84 511.87 256.01 512.01C311.17 511.87 351.82 504.09 382.16 496.52C431.64 483.08 483.09 431.63 496.53 382.15C504.1 351.82 511.88 311.17 512.02 256C511.88 200.83 504.1 160.19 496.53 129.85H496.52Z" fill="#FFE9E3"/>
<path d="M444.68 366.21C434.14 348.63 393.77 330.34 354.96 325.57C331.16 322.88 299.28 320.11 256 320.07C212.72 320.12 180.83 322.88 157.04 325.57C118.23 330.35 77.86 348.63 67.32 366.21C61.38 376.99 55.28 391.43 55.17 411.04C55.28 430.64 61.38 445.09 67.32 455.87C77.86 473.45 118.23 491.74 157.04 496.51C180.84 499.2 212.73 501.97 256 502.01C299.28 501.96 331.16 499.19 354.96 496.51C393.78 491.74 434.14 473.45 444.68 455.87C450.61 445.09 456.72 430.65 456.83 411.04C456.72 391.44 450.61 376.99 444.68 366.21Z" fill="url(#paint0_radial_128_2)"/>
<path d="M253.359 110H257.608C284.621 110.415 311.504 118.351 334.244 132.976C358.449 148.383 377.958 171.066 389.531 197.33C397.499 215.252 401.642 234.785 402 254.384V258.624C401.577 285.637 393.641 312.52 379.016 335.252C363.715 359.294 341.243 378.697 315.207 390.287C297.155 398.41 277.426 402.634 257.649 403H252.643C226.46 402.43 200.424 394.861 178.213 380.944C153.341 365.512 133.27 342.463 121.477 315.67C113.598 297.992 109.488 278.727 109 259.397V254.376C109.342 236.462 112.801 218.589 119.515 201.969C130.991 173.215 151.9 148.367 178.205 132.056C200.628 118.017 226.932 110.423 253.359 110ZM244.537 199.422C230.538 202.051 217.67 210.1 209.125 221.486C201.026 232.1 196.835 245.594 197.445 258.925C197.934 272.184 203.199 285.19 212.046 295.07C220.731 304.91 232.849 311.682 245.815 313.798C259.423 316.126 273.853 313.415 285.638 306.188C298.164 298.627 307.646 286.174 311.504 272.045C314.751 260.309 314.238 247.539 309.933 236.137C304.822 222.325 294.209 210.67 280.958 204.256C269.767 198.738 256.778 197.094 244.537 199.422Z" fill="#303030"/>
<path d="M244.537 199.422C256.778 197.094 269.768 198.738 280.959 204.256C294.209 210.67 304.822 222.325 309.933 236.137C314.238 247.539 314.751 260.309 311.504 272.045C307.646 286.174 298.164 298.627 285.638 306.188C273.853 313.415 259.423 316.126 245.815 313.798C232.85 311.682 220.731 304.91 212.047 295.07C203.2 285.19 197.934 272.184 197.445 258.925C196.835 245.594 201.027 232.1 209.125 221.487C217.671 210.1 230.538 202.051 244.537 199.422ZM246.149 209.05C228.308 212.363 213.129 226.63 208.718 244.235C205.462 256.541 207.31 270.116 213.837 281.055C220.096 291.733 230.603 299.84 242.551 303.095C253.872 306.261 266.349 305.122 276.889 299.88C287.478 294.688 296.015 285.474 300.386 274.52C304.862 263.434 305.009 250.664 300.769 239.482C296.528 228.087 287.795 218.467 276.873 213.12C267.448 208.424 256.477 207.032 246.149 209.05Z" fill="white"/>
<path d="M246.148 209.05C256.477 207.032 267.448 208.424 276.873 213.12C287.795 218.467 296.528 228.087 300.769 239.482C305.009 250.664 304.862 263.434 300.386 274.52C296.015 285.474 287.478 294.688 276.889 299.88C266.349 305.122 253.872 306.261 242.551 303.095C230.603 299.84 220.096 291.733 213.837 281.055C207.31 270.116 205.462 256.541 208.718 244.235C213.129 226.63 228.308 212.363 246.148 209.05Z" fill="#F33F0C"/>
</g>
<defs>
<radialGradient id="paint0_radial_128_2" cx="0" cy="0" r="1" gradientUnits="userSpaceOnUse" gradientTransform="translate(256 405) rotate(5.2426) scale(201.674 90.7531)">
<stop stop-color="#F33F0C" stop-opacity="0.38"/>
<stop offset="1" stop-color="#F33F0C" stop-opacity="0"/>
</radialGradient>
<clipPath id="clip0_128_2">
<rect width="512" height="512" fill="white"/>
</clipPath>
</defs>
</svg>
